<svg id="splitsvg" width="704.73" height="704.73" version="1.1" xmlns="http://www.w3.org/2000/svg">
 <g id="svgg" transform="translate(-4.8093 .43884)">
  <path d="m345.33 31.953c-30.549 31.696-27.771 28.305-26.791 32.709 0.379 1.704 1.027 4.629 1.441 6.499 0.413 1.87 1.126 5.02 1.584 7 1.191 5.149 1.778 7.762 2.968 13.2 0.578 2.64 1.314 5.88 1.636 7.2s0.95 4.065 1.395 6.1 1.181 5.349 1.636 7.365c1.292 5.725 1.622 5.38-6.827 7.136-5.38 1.118-17.809 4.618-20.517 5.778-0.706 0.302-3.263 1.308-5.683 2.236-9.927 3.808-22.802 10.613-33 17.443-14.74 9.872-34.097 27.778-43.483 40.224-0.614 0.815-2.66 3.515-4.545 6-20.024 27.658-33.481 59.483-40.562 90.718-0.36 1.65-0.824 3.72-1.031 4.6-0.744 3.16-2.102 12.145-2.78 18.4-0.238 2.2-0.624 5.08-0.856 6.4s-0.517 10.535-0.632 20.478l-0.19086 16.431c-4e-3 1.177 0.34359 1.863 0.71193 2.5056l1.2189 1.4296c1.072 1.258 2.849 3 3.949 3.871s4.655 4.158 7.9 7.305l5.3212 5.1606c0.5919 0.34138 0.5476 0.66709 0.57885 1.0905v158.53c0.027 0.58622 0.10476 0.784 0.3197 1.2289l1.3343 2.4871c0.91 1.696 1.969 3.534 2.354 4.084 0.808 1.153 4.792 8.035 4.792 8.277 0 0.089 0.658 1.188 1.462 2.442 0.804 1.255 1.942 3.181 2.53 4.281s2.029 3.62 3.202 5.6c1.172 1.98 3.014 5.13 4.091 7s2.287 3.94 2.687 4.6c0.649 1.067 2.328 3.96 4.445 7.655 2.107 3.679 7.133 12.353 8.775 15.145 2.529 4.301 7.452 12.79 9.342 16.107 0.844 1.481 2.481 4.313 3.637 6.293 4.088 6.997 6.514 11.232 8.02 14 0.838 1.54 2.487 4.373 3.666 6.296 1.179 1.922 2.143 3.584 2.143 3.691 0 0.169 3.246 5.7 7.241 12.34 0.637 1.059 1.159 2.024 1.159 2.144s0.881 1.683 1.958 3.473c1.078 1.791 2.313 3.886 2.745 4.656 0.433 0.77 1.737 3.02 2.897 5 1.161 1.98 2.772 4.77 3.58 6.2s2.887 5.03 4.62 8c3.244 5.561 3.942 6.795 6.977 12.349 1.958 3.582 2.812 4.108 2.842 1.751 0.011-0.825 0.191-3.3 0.4-5.5 0.395-4.162 1.207-13.041 2.195-24 0.317-3.52 0.752-8.74 0.96501-11.6 0.214-2.86 0.573-6.64 0.798-8.4 0.477-3.729 0.931-8.718 3.019-33.2 0.578-6.779 1.429-16.255 2.407-26.8 1.36-14.664 1.777-19.283 3.594-39.8 0.322-3.63 0.86-9.615 1.197-13.3 1.357-14.862 1.856-20.396 2.405-26.7 0.607-6.98 1.414-15.912 2.419-26.8 0.958-10.377 1.75-19.226 2.38-26.6 0.319-3.74 0.859-9.77 1.201-13.4 0.341-3.63 0.879-9.48 1.195-13 0.317-3.52 0.864-9.55 1.216-13.4 0.808-8.843 1.608-18.209 2.17-25.4 0.24-3.08 0.61-6.68 0.822-8s0.494-4.56 0.627-7.2 0.395-5.396 0.581-6.125c0.265-1.035 0.19-1.473-0.34-2-0.767-0.762-1.027-0.893-12.87-6.497-4.73-2.238-11.84-5.658-15.8-7.601-3.96-1.943-11.79-5.728-17.4-8.411-10.111-4.836-17.902-8.577-26-12.482-2.31-1.114-7.35-3.531-11.2-5.372s-8.98-4.314-11.4-5.496c-9.145-4.467-17.291-8.386-19.8-9.527-4.154-1.889-4.144-1.64-0.397-9.689 1.881-4.042 9.52-19.752 11.767-24.2 1.167-2.31 2.257-4.65 2.423-5.2 0.974-3.231 1.833-3.131 10.871 1.267 4.145 2.017 10.596 5.141 14.336 6.941s10.58 5.095 15.2 7.322c4.62 2.227 11.73 5.653 15.8 7.612s10.46 5.05 14.2 6.868 7.7 3.693 8.8 4.166c1.1 0.474 5.15 2.402 9 4.285s10.87 5.272 15.6 7.531c13.761 6.572 18.37 8.889 18.867 9.488 0.525 0.633 0.199 2.995-2.666 19.32-0.366 2.09-0.912 5.24-1.212 7s-0.834 4.82-1.188 6.8-0.899 5.13-1.211 7c-0.313 1.87-0.837 4.93-1.166 6.8-0.328 1.87-1.226 7-1.995 11.4-0.77 4.4-1.863 10.61-2.43 13.8-0.568 3.19-1.377 7.96-1.799 10.6s-1.049 6.33-1.393 8.2c-3.032 16.493-4.023 23.084-3.679 24.457 0.144 0.572 2.298 2.946 4.963 5.471 4.979 4.717 22.182 20.94 29.394 27.72 1.1673 1.0975 2.278 2.08 3.131 2.7824 1.485 1.2906 1.6862 1.2952 3.3912-0.39936 3.2476-2.908 11.129-10.297 26.057-24.41 2.455-2.322 5.922-5.545 7.703-7.163 4.271-3.88 4.186-2.988 1.631-17.258-0.453-2.53-1.26-7.12-1.793-10.2-0.534-3.08-1.251-7.13-1.595-9-0.343-1.87-0.897-5.11-1.231-7.2s-0.869-5.24-1.188-7c-0.86-4.74-1.77-10.067-2.21-12.938-0.213-1.395-0.554-3.285-0.756-4.2-0.203-0.914-0.654-3.372-1.004-5.462s-0.893-5.24-1.208-7c-0.314-1.76-0.864-5-1.222-7.2s-0.904-5.26-1.215-6.8c-0.31-1.54-0.754-4.06-0.987-5.6-0.724-4.798-1.509-9.509-1.965-11.8-0.24-1.21-0.621-3.116-0.845-4.236-0.625-3.123-0.132-3.954 3.257-5.482 1.563-0.705 7.19-3.434 12.503-6.065 5.314-2.631 10.921-5.34 12.461-6.021 1.54-0.68 7.48-3.54 13.2-6.355 11.831-5.822 20.818-10.207 39.4-19.222 7.15-3.469 17.737-8.638 23.526-11.487 7.189-3.538 10.863-5.141 11.591-5.056 1.051 0.122 6.53 10.385 13.306 24.924 0.923 1.98 2.675 5.622 3.894 8.094 2.651 5.373 2.6 5.701-1.172 7.56-1.4 0.69-8.215 3.998-15.145 7.352-6.93 3.353-16.38 7.942-21 10.198s-14.25 6.933-21.4 10.395c-7.15 3.461-16.24 7.879-20.2 9.818-3.96 1.94-12.708 6.212-19.439 9.495-13.439 6.553-12.724 6.076-12.8 8.538-0.05 1.636 0.124 3.877 1.211 15.55 0.235 2.53 0.711 7.75 1.056 11.6 0.346 3.85 0.877 9.52 1.18 12.6s0.676 7.22 0.829 9.2 0.33 4.14 0.393 4.8 0.398 4.53 0.744 8.6c0.628 7.379 1.25 14.295 2.411 26.8 0.337 3.63 0.874 9.66 1.195 13.4 0.32 3.74 0.867 9.86 1.215 13.6 1.118 12.008 2.589 28.305 3.627 40.2 0.879 10.063 2.066 23.153 3.591 39.6 0.768 8.274 1.627 18.243 2.155 25 0.223 2.86 0.511 5.92 0.639 6.8 0.129 0.88 0.503 4.66 0.832 8.4 0.33 3.74 0.851 9.59 1.16 13s0.85 9.44 1.204 13.4c1.001 11.218 1.74 19.42 2.397 26.6 1.436 15.706 1.838 20.195 2.396 26.8 0.991 11.721 1.349 15.278 1.561 15.49 0.288 0.288 2.215-1.982 2.23-2.627 7e-3 -0.296 0.958-2.121 2.113-4.056 1.155-1.936 2.447-4.124 2.87-4.863 1.962-3.422 9.537-16.554 11.621-20.144 1.278-2.2 2.771-4.81 3.319-5.8s1.191-2.044 1.428-2.343c0.577-0.727 1.237-1.858 2.483-4.257 0.571-1.1 1.7-3.106 2.509-4.458 1.77-2.96 8.52-14.535 11.933-20.464 2.876-4.995 3.166-5.496 5.016-8.678 2.506-4.312 11.993-20.737 13.515-23.4 0.817-1.43 2.119-3.68 2.893-5s3.026-5.19 5.005-8.6c1.98-3.41 4.549-7.82 5.71-9.8 1.16-1.98 3.548-6.12 5.306-9.2 1.757-3.08 3.521-6.073 3.92-6.652 0.653-0.948 2.973-4.992 5.384-9.385 0.495-0.901 1.403-2.431 2.019-3.4 1.341-2.11 5.582-9.562 6.626-11.644 0.716-1.427 0.743-4.33 0.743-81.177v-78.79c0.0157-0.6936 0.19589-1.0677 0.65815-1.5432l6.5458-6.3332c3.962-3.833 8.011-7.586 8.998-8.34 3.302-2.521 3.501-3.584 3.43-18.336-0.051-10.408-0.38-17.529-1.201-26-2.284-23.552-9.566-51.984-18.44-72-0.683-1.54-1.455-3.34-1.715-4-1.71-4.329-9.181-18.599-12.405-23.692-0.589-0.931-1.071-1.788-1.071-1.906 0-0.33-5.6-8.966-7.188-11.086-0.777-1.036-2.222-2.979-3.212-4.317-8.149-11.012-20.635-24.91-27.262-30.344-1.243-1.02-3.696-3.115-5.451-4.655-6.511-5.716-16.228-12.705-23.487-16.893-1.54-0.889-3.61-2.089-4.6-2.667-7.65-4.466-19.118-9.648-29.4-13.285-4.864-1.72-17.581-5.048-21.959-5.746-2.708-0.431-4.066-1.538-3.667-2.986 0.124-0.453 0.774-3.253 1.444-6.223s1.577-6.93 2.016-8.8c1.307-5.57 4.225-18.566 6.602-29.4 0.338-1.54 0.975-4.288 1.417-6.108 1.058-4.361 1.839-3.124-9.253-14.665-5.39-5.608-14.115-14.703-19.39-20.212-4.8246-5.0386-8.9273-9.2279-9.6997-9.9073-0.12107-0.10813-0.16803-0.11272-0.28646 0.0059-0.90261 0.80909-5.8481 5.8411-11.666 11.878" fill="#cc0505" fill-rule="evenodd"/>
 </g>
</svg>
